# xmcd
#
# Track frame offsets:
#	150
#	14046
#	29817
#	45611
#	60880
#	77464
#	93614
#	106069
#	124700
#	134232
#	145701
#	158241
#	167828
#	177387
#
# Disc length: 2554 seconds
#
# Revision: 0
# Processed by: cddbd v1.4PL0 Copyright (c) Steve Scherf et al.
# Submitted via: EasyCDDAExtractor 4.6.0.1
#
DISCID=be09f80e
DTITLE=Hungry John - It's All Right
DYEAR=2000
DGENRE=Blues
TTITLE0=Still present
TTITLE1=It's all right
TTITLE2=Blues move in
TTITLE3=Broke an'hungry
TTITLE4=Leave her be
TTITLE5=Chicago boogie
TTITLE6=I'm sorry, she's mine
TTITLE7=Warm love
TTITLE8=Risin' sun
TTITLE9=You owe me money
TTITLE10=Coffee
TTITLE11=Poor me
TTITLE12=Bulldog
TTITLE13=Hear me out
EXTD=
EXTT0=
EXTT1=
EXTT2=
EXTT3=
EXTT4=
EXTT5=
EXTT6=
EXTT7=
EXTT8=
EXTT9=
EXTT10=
EXTT11=
EXTT12=
EXTT13=
PLAYORDER=
